# xmcd
#
# Track frame offsets:
#	150
#	13876
#	24700
#	42870
#	48910
#	73631
#	93241
#	112943
#	138535
#	168619
#	195603
#	246046
#
# Disc length: 3495 seconds
#
# Revision: 0
# Processed by: cddbd v1.5.2PL0 Copyright (c) Steve Scherf et al.
# Submitted via: EasyCDDAExtractor 11.1.0.1
#
DISCID=a00da50c
DTITLE=Mira Kubasińska - Powiedzieliśmy już wszystko bonus CD
DYEAR=1900
DGENRE=
TTITLE0=Walkin' In The Sand (1966)
TTITLE1=You're No Good (1966)
TTITLE2=Gdybyś kochał hej (Opole '69)
TTITLE3=Gdybyś kochał hej bis (Opole '69)
TTITLE4=Na drugim brzegu tęczy (Opole '69)
TTITLE5=Na drugim brzegu tęczy bis (Opole '69)
TTITLE6=Wyspa (Old Rock Meeting, Sopot '86)
TTITLE7=Powiedzieliśmy już wszystko (Old Rock Meeting, Sopot '86)
TTITLE8=Do kogo idziesz (Rzeszów 2003)
TTITLE9=Zapraszamy na korridę (Rzeszów 2003)
TTITLE10=Wielki ogień (Rzeszów 2003)
TTITLE11=Poszłabym za tobą (oryginalna wersja teledysku 1969)
EXTD=
EXTT0=
EXTT1=
EXTT2=
EXTT3=
EXTT4=
EXTT5=
EXTT6=
EXTT7=
EXTT8=
EXTT9=
EXTT10=
EXTT11=
PLAYORDER=
